<?xml version="1.0" encoding="UTF-8"?>
<svg version="1.1" xmlns="http://www.w3.org/2000/svg" width="200" height="200">
<path d="M0 0 C66 0 132 0 200 0 C200 66 200 132 200 200 C134 200 68 200 0 200 C0 134 0 68 0 0 Z " fill="#0E9488" transform="translate(0,0)"/>
<path d="M0 0 C3.375 0.9375 3.375 0.9375 5.375 3.9375 C5.60205078 7.1237793 5.60205078 7.1237793 5.5703125 11.01171875 C5.5674826 11.6955513 5.56465271 12.37938385 5.56173706 13.0839386 C5.55055684 15.26447165 5.52545691 17.44459145 5.5 19.625 C5.48996738 21.10481177 5.48084202 22.58462999 5.47265625 24.06445312 C5.45062481 27.688936 5.41611002 31.31317766 5.375 34.9375 C6.36242188 34.2878125 7.34984375 33.638125 8.3671875 32.96875 C9.66130293 32.12476167 10.95558229 31.28102465 12.25 30.4375 C12.90097656 30.00824219 13.55195312 29.57898438 14.22265625 29.13671875 C19.1484375 25.9375 19.1484375 25.9375 21.375 25.9375 C21.35928955 25.25647217 21.3435791 24.57544434 21.32739258 23.8737793 C21.26506778 20.79093719 21.22601742 17.70822756 21.1875 14.625 C21.16236328 13.55314453 21.13722656 12.48128906 21.11132812 11.37695312 C21.10166016 10.34892578 21.09199219 9.32089844 21.08203125 8.26171875 C21.0663208 7.31385498 21.05061035 6.36599121 21.03442383 5.3894043 C21.375 2.9375 21.375 2.9375 22.6706543 1.09692383 C24.375 -0.0625 24.375 -0.0625 27.9375 0.0625 C31.375 0.9375 31.375 0.9375 33.375 3.9375 C33.60205078 5.83862305 33.60205078 5.83862305 33.5703125 7.94921875 C33.56386719 8.70654297 33.55742188 9.46386719 33.55078125 10.24414062 C33.53402344 11.02982422 33.51726562 11.81550781 33.5 12.625 C33.49097656 13.42228516 33.48195312 14.21957031 33.47265625 15.04101562 C33.44911585 17.006639 33.41324547 18.97210775 33.375 20.9375 C34.220625 20.6075 35.06625 20.2775 35.9375 19.9375 C39.58489216 18.87644046 42.59774664 18.78640987 46.375 18.9375 C46.32279297 17.25720703 46.32279297 17.25720703 46.26953125 15.54296875 C46.24139161 14.07032749 46.21409163 12.59767002 46.1875 11.125 C46.16236328 10.38701172 46.13722656 9.64902344 46.11132812 8.88867188 C46.03742348 3.44436269 46.03742348 3.44436269 47.69921875 0.94921875 C50.3374906 -0.64358407 52.37185427 -0.43789322 55.375 -0.0625 C57.05078125 0.94921875 57.05078125 0.94921875 58.375 2.9375 C58.59214241 5.74877043 58.65784276 8.3258345 58.5625 11.125 C58.54219727 12.24938477 58.54219727 12.24938477 58.52148438 13.39648438 C58.48618539 15.24379767 58.43237917 17.09074066 58.375 18.9375 C59.385625 18.89625 60.39625 18.855 61.4375 18.8125 C65.55576052 18.94323843 68.49330533 19.67000786 72.375 20.9375 C72.32279297 19.04064453 72.32279297 19.04064453 72.26953125 17.10546875 C72.24139323 15.44532577 72.21409309 13.78516844 72.1875 12.125 C72.16236328 11.29162109 72.13722656 10.45824219 72.11132812 9.59960938 C72.10166016 8.79716797 72.09199219 7.99472656 72.08203125 7.16796875 C72.0663208 6.42957764 72.05061035 5.69118652 72.03442383 4.93041992 C72.47438607 2.35593119 73.3104618 1.49473614 75.375 -0.0625 C80.48534483 -0.7012931 80.48534483 -0.7012931 83.0546875 1.14355469 C84.8393842 3.56847173 84.6447861 5.03154099 84.5 8.015625 C83.71773053 19.11896836 83.71773053 19.11896836 87.73828125 28.90625 C90.57285805 30.6182593 93.27443626 31.7972644 96.375 32.9375 C97.72779363 33.9110128 99.06471853 34.90748047 100.375 35.9375 C100.35928955 34.95354248 100.3435791 33.96958496 100.32739258 32.95581055 C100.27309022 29.30501492 100.23864915 25.65425499 100.21020508 22.00317383 C100.19511906 20.42303464 100.1746475 18.84293731 100.14868164 17.26293945 C100.11228874 14.99159415 100.09527238 12.72080241 100.08203125 10.44921875 C100.06654739 9.74286789 100.05106354 9.03651703 100.03511047 8.3087616 C100.03411585 5.40970443 100.04143323 3.42527485 101.70581055 0.99145508 C104.32952365 -0.66520274 106.35576918 -0.43990385 109.375 -0.0625 C111.49411701 1.51581492 112.28266628 2.38189227 112.71989441 5.01286316 C112.70686783 5.81065689 112.69384125 6.60845062 112.68041992 7.43041992 C112.67439255 8.33954636 112.66836517 9.24867279 112.66215515 10.18534851 C112.64344864 11.16961319 112.62474213 12.15387787 112.60546875 13.16796875 C112.60336606 15.27278551 112.60276611 17.3776042 112.60351562 19.48242188 C112.58914617 22.78471661 112.56314641 26.08555738 112.5090332 29.38745117 C112.32506626 42.2563771 112.62128749 52.52400626 119.46435547 63.68725586 C123.2563917 70.13798143 124.32198469 77.06269109 124.6875 84.4375 C124.79109218 86.83024334 124.79109218 86.83024334 125.375 88.9375 C128.20357071 91.57594898 128.20357071 91.57594898 131.375 92.9375 C132.375 93.9375 132.375 93.9375 132.6875 96.8125 C132.375 99.9375 132.375 99.9375 130.75 101.875 C127.35453828 103.39402235 125.93963615 103.08087386 122.375 101.9375 C120.08058909 100.44633887 117.88700199 98.88424067 115.71875 97.21484375 C112.66757357 95.55195259 110.80684317 95.4778383 107.375 95.9375 C104.99135275 97.43820795 104.99135275 97.43820795 102.8125 99.4375 C97.72902865 103.18321573 93.8235006 103.95836222 87.55859375 103.6484375 C83.04802441 102.64116926 80.13050993 100.48319914 76.69140625 97.46875 C73.66369049 95.46729203 71.94491897 95.45996538 68.375 95.9375 C65.88373544 97.15535579 65.88373544 97.15535579 63.6875 98.875 C57.77116439 103.197297 52.60610908 103.70412188 45.375 102.9375 C42.24350289 101.28634698 40.04106366 99.53910589 37.4375 97.1875 C34.17764091 95.21182783 32.12483608 95.37502459 28.375 95.9375 C26.14093608 97.31736301 24.1756762 98.83212793 22.171875 100.52734375 C18.33983891 103.53465903 13.98655953 103.37961851 9.3125 103.3671875 C4.16031911 102.61354402 0.01971383 99.58221383 -3.625 95.9375 C-8.9303379 95.32060024 -11.43802355 96.77400668 -15.625 99.9375 C-19.09423881 102.25032587 -20.54705575 102.36228586 -24.625 101.9375 C-26.5 100.8125 -26.5 100.8125 -27.625 98.9375 C-28.1875 96.0625 -28.1875 96.0625 -27.625 92.9375 C-25.79376758 90.78706193 -24.00512367 89.55598409 -21.625 87.9375 C-20.965 87.9375 -20.305 87.9375 -19.625 87.9375 C-19.728125 86.803125 -19.83125 85.66875 -19.9375 84.5 C-19.92976559 79.60411718 -18.83762878 75.23408683 -17.5 70.5625 C-17.31219971 69.88002197 -17.12439941 69.19754395 -16.9309082 68.49438477 C-15.96723371 65.2930318 -15.05392225 62.55303492 -13.12841797 59.78979492 C-6.39025406 49.97272838 -7.87639128 38.41577988 -8 27 C-8.02406682 23.76229129 -8.03924364 20.52549763 -8.03042603 17.28770447 C-8.02585567 15.28322515 -8.04050957 13.27858619 -8.07675171 11.27442932 C-8.07415208 4.59854503 -8.07415208 4.59854503 -5.82666016 1.29077148 C-3.625 -0.0625 -3.625 -0.0625 0 0 Z " fill="#F9FBFA" transform="translate(47.625,46.0625)"/>
<path d="M0 0 C13.07971392 8.99449496 23.00840837 22.22615324 26 38 C26 39.32 26 40.64 26 42 C25.3709375 42.14695313 24.741875 42.29390625 24.09375 42.4453125 C19.25339088 43.71371986 15.66448933 44.99586363 11.8125 48.25 C9.00480626 50.49615499 8.29941615 50.97822428 4.5625 51.25 C0.52352755 49.83281669 -2.53795731 47.88148559 -5.984375 45.375 C-9.91447602 42.69400085 -13.35603745 42.61934733 -18 43 C-22.05260438 44.48416062 -25.35097901 46.4436963 -28.625 49.25 C-31 51 -31 51 -33.8125 51.625 C-37.84018087 50.83525865 -39.96979566 49.0024747 -43.125 46.46875 C-47.52918389 43.01880595 -51.48590857 42.43924494 -57 43 C-61.05170203 44.49720037 -64.34696863 46.44025883 -67.625 49.25 C-70.70411249 51.51881973 -72.23153188 51.38149924 -76 51 C-78.5625 49.5390625 -78.5625 49.5390625 -81 47.625 C-84.58308284 44.94580664 -87.57859474 43.04717493 -92 42 C-92.56284588 29.81711022 -85.38666401 19.13326437 -78 10 C-69.65984219 0.93592253 -58.95210359 -5.185193 -47 -8 C-46.37536865 -8.17128418 -45.7507373 -8.34256836 -45.10717773 -8.51904297 C-29.95610471 -11.97723018 -12.96437419 -7.94198258 0 0 Z " fill="#0E9488" transform="translate(133,86)"/>
<path d="M0 0 C3.04778434 1.57588849 5.73415398 3.33344212 8.4921875 5.37109375 C11.19110035 7.12412593 12.78274924 7.9146751 16 8 C18.6916472 6.64483673 18.6916472 6.64483673 21.1875 4.625 C22.04730469 3.97789062 22.90710938 3.33078125 23.79296875 2.6640625 C24.52128906 2.11492187 25.24960938 1.56578125 26 1 C30.0612336 -1.0306168 34.60687647 -0.70445289 39 0 C42.09579566 1.55986611 44.79097187 3.33067905 47.58984375 5.37109375 C49.87008345 6.91219578 51.27817583 7.75307162 54 8 C57.65227051 6.17386474 60.62587076 4.29930339 63.8125 1.75 C68.2862706 -0.70618778 72.00156392 -0.77255581 77 0 C81.1666853 1.42029621 84.32885047 3.40874923 87.625 6.3125 C89.90448287 8.30566175 89.90448287 8.30566175 92.859375 7.828125 C96.3091782 6.9184754 97.93163422 5.72824925 100.625 3.4375 C105.34702456 0.05959867 108.86685962 -1.20940835 114.6875 -0.90625 C121.63921369 0.99563394 128.90660146 5.90660146 134 11 C134.4556962 16.24050633 134.4556962 16.24050633 132.875 18.875 C129.92365426 20.64580745 128.42437009 20.57072835 125 20 C121.48320736 18.04039415 117.86266104 15.86266104 115 13 C108.29611157 13.13966434 104.32393111 16.18325102 99 20 C95.48187618 21.75906191 91.83965402 21.54255981 88 21 C83.96591475 19.33626102 80.36638615 17.16923224 77.05078125 14.33203125 C74.44353946 12.63856563 73.05863833 12.5507625 70 13 C67.88259609 14.20146722 67.88259609 14.20146722 66 15.875 C61.04480374 19.79478212 57.48797343 21.44509845 50.9765625 21.25 C45.73933323 20.58758365 41.77651839 17.21400416 37.80859375 13.98828125 C35.31252731 12.62433998 33.81417019 12.61183859 31 13 C28.36214995 14.46520875 28.36214995 14.46520875 25.875 16.4375 C20.6857624 20.34125777 16.56692338 21.85604537 10 21 C5.9001083 19.54544283 2.66415104 17.59935582 -0.5625 14.6875 C-2.96048722 12.70415723 -2.96048722 12.70415723 -6.3125 12.875 C-10.44002197 14.13424399 -12.80976345 15.90279972 -16.0078125 18.72265625 C-18.5198206 20.33329674 -20.06759219 20.31401402 -23 20 C-25.60287004 18.38442549 -25.94305113 17.22779546 -26.6875 14.25 C-25.60403451 9.12816313 -22.09151327 6.99609039 -18 4 C-17.43796875 3.56042969 -16.8759375 3.12085938 -16.296875 2.66796875 C-11.30261473 -0.76255469 -5.86134503 -1.20998275 0 0 Z " fill="#F9FBFB" transform="translate(46,151)"/>
<path d="M0 0 C1.16094177 -0.00845947 2.32188354 -0.01691895 3.51800537 -0.02563477 C5.4303598 -0.01652573 5.4303598 -0.01652573 7.38134766 -0.00723267 C8.73651554 -0.01129741 10.09168011 -0.01663875 11.44683838 -0.02316284 C15.12864538 -0.03685399 18.81020055 -0.03153052 22.49201202 -0.02202559 C26.34233791 -0.01443824 30.19264203 -0.02147202 34.04296875 -0.02618408 C40.50931679 -0.03164435 46.97556209 -0.02444297 53.44189453 -0.01016235 C60.92132742 0.00616474 68.400515 0.00087642 75.87994194 -0.01564157 C82.29785197 -0.02924877 88.71568808 -0.03117987 95.13360786 -0.02332556 C98.96840563 -0.0186448 102.80308803 -0.01803517 106.63787842 -0.02793503 C110.24289197 -0.03659136 113.84758878 -0.03060759 117.45256805 -0.01325226 C119.40931257 -0.00738312 121.36608382 -0.01631435 123.32281494 -0.02563477 C124.48375671 -0.01717529 125.64469849 -0.00871582 126.84082031 0 C128.35731674 0.00169662 128.35731674 0.00169662 129.90444946 0.00342751 C132.42041016 0.38095093 132.42041016 0.38095093 134.24569702 1.71726036 C136.07495515 4.307952 135.80483468 6.30555474 135.42041016 9.38095093 C134.24569702 11.04464149 134.24569702 11.04464149 132.42041016 12.38095093 C129.90444946 12.75847435 129.90444946 12.75847435 126.84082031 12.76190186 C125.67987854 12.77036133 124.51893677 12.7788208 123.32281494 12.78753662 C122.04791199 12.78146393 120.77300903 12.77539124 119.45947266 12.76913452 C118.10430477 12.77319927 116.74914021 12.7785406 115.39398193 12.7850647 C111.71217493 12.79875584 108.03061977 12.79343237 104.34880829 12.78392744 C100.4984824 12.77634009 96.64817829 12.78337387 92.79785156 12.78808594 C86.33150352 12.7935462 79.86525823 12.78634482 73.39892578 12.77206421 C65.91949289 12.75573711 58.44030532 12.76102544 50.96087837 12.77754343 C44.54296835 12.79115063 38.12513224 12.79308173 31.70721245 12.78522742 C27.87241468 12.78054666 24.03773228 12.77993702 20.20294189 12.78983688 C16.59792834 12.79849321 12.99323154 12.79250945 9.38825226 12.77515411 C7.43150774 12.76928497 5.47473649 12.7782162 3.51800537 12.78753662 C2.3570636 12.77907715 1.19612183 12.77061768 0 12.76190186 C-1.51649643 12.76020524 -1.51649643 12.76020524 -3.06362915 12.75847435 C-5.57958984 12.38095093 -5.57958984 12.38095093 -7.40487671 11.04464149 C-9.23413484 8.45394986 -8.96401437 6.45634712 -8.57958984 3.38095093 C-6.18252315 -0.01390109 -4.00004733 0.00447514 0 0 Z " fill="#FBFCFC" transform="translate(36.57958984375,27.619049072265625)"/>
</svg>
